<svg xmlns="http://www.w3.org/2000/svg" width="50" height="60" viewBox="0 0 50 60">
    <path id="prefix__Path_9895" d="M-6279.437-11309a1.56 1.56 0 0 1-1.563-1.56 1.56 1.56 0 0 1 1.563-1.561h18.749a1.56 1.56 0 0 1 1.563 1.561 1.56 1.56 0 0 1-1.563 1.56zm-5-8.14a1.561 1.561 0 0 1-1.561-1.561 1.559 1.559 0 0 1 1.561-1.558h28.752a1.559 1.559 0 0 1 1.561 1.558 1.56 1.56 0 0 1-1.561 1.561zm5-7.984a1.56 1.56 0 0 1-1.563-1.558 1.56 1.56 0 0 1 1.563-1.56h18.749a1.56 1.56 0 0 1 1.563 1.56 1.56 1.56 0 0 1-1.563 1.558zm-12.914-8.015a3.643 3.643 0 0 1-3.649-3.639v-28.582a3.645 3.645 0 0 1 3.649-3.641h42.7a3.645 3.645 0 0 1 3.649 3.641v28.582a3.643 3.643 0 0 1-3.649 3.639zm-.525-32.221v28.582a.523.523 0 0 0 .525.521h42.7a.522.522 0 0 0 .525-.521v-28.582a.524.524 0 0 0-.525-.522h-42.7a.524.524 0 0 0-.525.523zm18.746 25.86a1.363 1.363 0 0 1-1.364-1.361v-5.444h-5.456a1.362 1.362 0 0 1-1.364-1.361v-6.8a1.362 1.362 0 0 1 1.364-1.36h5.456v-5.444a1.362 1.362 0 0 1 1.364-1.363h6.822a1.363 1.363 0 0 1 1.364 1.363v5.444h5.455a1.362 1.362 0 0 1 1.364 1.36v6.8a1.362 1.362 0 0 1-1.364 1.361h-5.455v5.444a1.363 1.363 0 0 1-1.364 1.361zm-5.456-9.528h5.456a1.366 1.366 0 0 1 1.367 1.361v5.444h4.091v-5.444a1.363 1.363 0 0 1 1.364-1.361h5.456v-4.082h-5.456a1.363 1.363 0 0 1-1.364-1.361v-5.446h-4.091v5.446a1.366 1.366 0 0 1-1.367 1.361h-5.456z" data-name="Path 9895" transform="translate(6296 11369)" style="fill:#ffd100"/>
</svg>
