<svg xmlns="http://www.w3.org/2000/svg" width="54.953" height="60" viewBox="0 0 54.953 60">
    <path id="prefix__Path_9604" d="M55.233 8.457a6.17 6.17 0 0 0-5.933 4.479h-5.487a1.629 1.629 0 0 0-1.64 1.64v11.8h-6.625V14.514a6.183 6.183 0 1 0-3.407 0v11.861h-6.5V14.64A1.629 1.629 0 0 0 24 13h-5.486a6.151 6.151 0 1 0 0 3.344H22.3v10.094h-4.922a1.629 1.629 0 0 0-1.64 1.64v24.038a1.629 1.629 0 0 0 1.64 1.64H32.2v5.363h-4.538a1.629 1.629 0 0 0-1.64 1.64 1.67 1.67 0 0 0 1.64 1.64h12.429a1.629 1.629 0 0 0 1.64-1.64 1.67 1.67 0 0 0-1.64-1.64h-4.543v-5.363h14.827a1.629 1.629 0 0 0 1.64-1.64V28.078a1.629 1.629 0 0 0-1.64-1.64h-4.921V16.343h3.785a6.177 6.177 0 1 0 5.994-7.886zm-24.164.189a2.839 2.839 0 1 1 2.839 2.839 2.868 2.868 0 0 1-2.839-2.839zm-18.486 8.77a2.839 2.839 0 1 1 2.839-2.839 2.827 2.827 0 0 1-2.839 2.839zm36.151 33H19.081V29.719h29.653zm6.5-33a2.839 2.839 0 1 1 2.839-2.839 2.91 2.91 0 0 1-2.84 2.839z" data-name="Path 9604" transform="translate(-6.4 -2.4)" style="fill:#ffd100"/>
</svg>
