<svg xmlns="http://www.w3.org/2000/svg" width="57.002" height="60.001" viewBox="0 0 57.002 60.001">
    <path id="prefix__Path_9896" d="M-6288.516-11321a1.486 1.486 0 0 1-1.471-1.5 1.486 1.486 0 0 1 1.471-1.5h25.083a1.489 1.489 0 0 1 1.474 1.5 1.489 1.489 0 0 1-1.474 1.5zm-1.836-10a5.89 5.89 0 0 1-5.641-6.112v-27.776a5.891 5.891 0 0 1 5.641-6.113h28.717a5.891 5.891 0 0 1 5.641 6.113v27.776a5.89 5.89 0 0 1-5.641 6.112zm-2.565-33.889v27.776a2.679 2.679 0 0 0 2.565 2.779h28.717a2.679 2.679 0 0 0 2.565-2.779v-27.776a2.679 2.679 0 0 0-2.565-2.779h-28.717a2.679 2.679 0 0 0-2.565 2.78zm13.9 25.209a1.368 1.368 0 0 1-.854-.632 1.355 1.355 0 0 1-.143-1.051l4.813-18.914a1.361 1.361 0 0 1 .628-.856 1.359 1.359 0 0 1 1.051-.144 1.365 1.365 0 0 1 1 1.637l-4.858 18.914a1.372 1.372 0 0 1-1.32 1.046zm29.065-3.816a1.484 1.484 0 0 1 1.474-1.5 1.48 1.48 0 0 1 1.474 1.5 1.488 1.488 0 0 1-1.474 1.5 1.492 1.492 0 0 1-1.473-1.504zm-54.054-.006a1.484 1.484 0 0 1 1.474-1.5 1.48 1.48 0 0 1 1.474 1.5 1.485 1.485 0 0 1-1.474 1.5 1.488 1.488 0 0 1-1.468-1.498zm33.161-.65a1.362 1.362 0 0 1-.269-1.8l3.816-4.639-3.816-4.593a1.36 1.36 0 0 1 .269-1.8 1.357 1.357 0 0 1 1.819.076l4.542 5.5a1.36 1.36 0 0 1 0 1.725l-4.542 5.456a1.354 1.354 0 0 1-.954.391 1.342 1.342 0 0 1-.864-.315zm-12.077-.077l-4.541-5.456a1.359 1.359 0 0 1 0-1.725l4.541-5.456a1.362 1.362 0 0 1 1.823-.077 1.362 1.362 0 0 1 .266 1.8l-3.813 4.593 3.813 4.59a1.366 1.366 0 0 1-.266 1.806 1.357 1.357 0 0 1-.869.313 1.355 1.355 0 0 1-.952-.388zm32.97-7.267a1.492 1.492 0 0 1 1.474-1.5 1.488 1.488 0 0 1 1.474 1.5 1.487 1.487 0 0 1-1.474 1.5 1.491 1.491 0 0 1-1.473-1.504zm-54.054 0a1.491 1.491 0 0 1 1.474-1.5 1.488 1.488 0 0 1 1.474 1.5 1.487 1.487 0 0 1-1.474 1.5 1.491 1.491 0 0 1-1.468-1.504zm54.054-8a1.491 1.491 0 0 1 1.474-1.5 1.487 1.487 0 0 1 1.474 1.5 1.487 1.487 0 0 1-1.474 1.5 1.491 1.491 0 0 1-1.473-1.504zm-54.054 0a1.491 1.491 0 0 1 1.474-1.5 1.487 1.487 0 0 1 1.474 1.5 1.487 1.487 0 0 1-1.474 1.5 1.491 1.491 0 0 1-1.468-1.504zm15.489-18.5a1.485 1.485 0 0 1-1.471-1.5 1.484 1.484 0 0 1 1.471-1.5h25.083a1.487 1.487 0 0 1 1.474 1.5 1.488 1.488 0 0 1-1.474 1.5z" data-name="Path 9896" transform="translate(6304.005 11381)" style="fill:#ffd100"/>
</svg>
