<svg xmlns="http://www.w3.org/2000/svg" width="60" height="59.768" viewBox="0 0 60 59.768">
    <g id="prefix__noun_cart_2111013" transform="translate(-161 253)">
        <path id="prefix__Path_9905" d="M9437.506-8604.211a4.892 4.892 0 0 1 4.982-4.982 4.891 4.891 0 0 1 4.98 4.982 5 5 0 0 1-4.98 4.979 5 5 0 0 1-4.982-4.979zm3.32 0a1.785 1.785 0 0 0 1.662 1.658 1.782 1.782 0 0 0 1.658-1.658 1.782 1.782 0 0 0-1.658-1.662 1.786 1.786 0 0 0-1.662 1.662zm-29.885 0a4.892 4.892 0 0 1 4.984-4.982 4.89 4.89 0 0 1 4.979 4.982 5 5 0 0 1-4.979 4.979 5 5 0 0 1-4.984-4.979zm3.322 0a1.782 1.782 0 0 0 1.662 1.658 1.783 1.783 0 0 0 1.658-1.658 1.784 1.784 0 0 0-1.658-1.662 1.783 1.783 0 0 0-1.661 1.662zm4.982-6.641a1.785 1.785 0 0 1-1.662-1.664 1.784 1.784 0 0 1 1.662-1.658h20.086a1.782 1.782 0 0 0 1.658-1.662 1.783 1.783 0 0 0-1.658-1.658h-21.581a1.65 1.65 0 0 1-1.66-1.162l-2.322-8.3-8.967-28.719h-3.818a1.782 1.782 0 0 0-1.66 1.658 1.789 1.789 0 0 1-1.66 1.662 1.791 1.791 0 0 1-1.662-1.662 4.892 4.892 0 0 1 4.982-4.98h4.98a1.988 1.988 0 0 1 1.658 1.164l1.662 5.479h44.826c.5 0 1.164 0 1.492.494a1.7 1.7 0 0 1 .332 1.5l-4.646 16.1a2.318 2.318 0 0 1-.334 1 12.209 12.209 0 0 1-4.979 5.809 12.422 12.422 0 0 1-5.979 1.664h-22.412l1.328 4.979h20.254a4.89 4.89 0 0 1 4.98 4.979 5 5 0 0 1-4.98 4.984zm-5.812-28.227l3.156 9.963H9440a8.368 8.368 0 0 0 7.971-5.979l1.164-3.984 2.822-9.959h-41.674zm17.434 4.314a2.488 2.488 0 0 1 2.488-2.486 2.49 2.49 0 0 1 2.49 2.486 2.491 2.491 0 0 1-2.49 2.492 2.489 2.489 0 0 1-2.488-2.491zm-7.8 1.828a1.6 1.6 0 0 1 0-2.322l9.963-9.963a1.6 1.6 0 0 1 2.322 0 1.607 1.607 0 0 1 0 2.326l-9.959 9.959a1.506 1.506 0 0 1-1.164.5 1.5 1.5 0 0 1-1.166-.499zm-.5-10.293a2.448 2.448 0 0 1 2.492-2.492 2.448 2.448 0 0 1 2.492 2.492 2.417 2.417 0 0 1-2.492 2.328 2.32 2.32 0 0 1-2.496-2.327z" data-name="Path 9905" transform="translate(-9235 8406)" style="fill:#ffd100"/>
    </g>
</svg>
