<svg xmlns="http://www.w3.org/2000/svg" width="56" height="56" viewBox="0 0 56 56">
    <path id="prefix__Path_9908" d="M10273.866-7967a11.964 11.964 0 0 1-11.865-12.062v-26.708a11.964 11.964 0 0 1 11.865-12.061h4.238v-3.446a1.709 1.709 0 0 1 1.7-1.724 1.71 1.71 0 0 1 1.7 1.724v3.446h17.011v-3.446a1.709 1.709 0 0 1 1.694-1.724 1.71 1.71 0 0 1 1.7 1.724v3.446h4.238a11.965 11.965 0 0 1 11.867 12.061v26.708a11.965 11.965 0 0 1-11.867 12.062zm-8.477-38.769v26.708a8.547 8.547 0 0 0 8.477 8.616h32.268a8.548 8.548 0 0 0 8.477-8.616v-26.708a8.547 8.547 0 0 0-8.477-8.615h-4.238v3.446a1.709 1.709 0 0 1-1.7 1.723 1.709 1.709 0 0 1-1.694-1.723v-3.446h-17.002v3.446a1.709 1.709 0 0 1-1.7 1.723 1.708 1.708 0 0 1-1.7-1.723v-3.446h-4.238a8.547 8.547 0 0 0-8.472 8.615zm20.872 21.892l-7.627-7.754a1.742 1.742 0 0 1 .087-2.339 1.678 1.678 0 0 1 2.3-.09l6.434 6.531 11.941-12.13a1.677 1.677 0 0 1 2.3.09 1.744 1.744 0 0 1 .087 2.339l-13.136 13.354a1.684 1.684 0 0 1-1.2.508 1.678 1.678 0 0 1-1.185-.509z" data-name="Path 9908" transform="translate(-10262.001 8023)" style="fill:#ffd100"/>
</svg>
